<svg width="136" viewBox="0 0 588 126" xmlns="http://www.w3.org/2000/svg" fill="currentColor"><path d="M99.0868 12.8108C99.0868 12.8108 98.437 14.1983 97.1375 16.9735C95.8436 19.7542 94.467 22.8212 93.0078 26.1746C91.5486 29.5279 89.8444 33.0189 87.8952 36.6475C85.9515 40.2707 83.8921 44.048 81.7171 47.9795C79.5477 51.911 77.1772 55.8976 74.6058 59.9392C72.0343 63.9753 69.116 68.2152 65.8507 72.6587C62.58 77.1078 59.3065 81.4138 56.0303 85.5765C52.754 89.7338 49.4062 93.7093 45.9868 97.5032C42.5618 101.292 39.2168 104.675 35.9515 107.654C32.6863 110.627 29.7239 113.237 27.0644 115.484C24.4048 117.731 21.7976 119.512 19.2427 120.828C16.6877 122.138 14.6945 123.198 13.2628 124.008C11.8312 124.817 9.88195 125.442 7.41513 125.883C4.94831 126.318 3.18904 125.55 2.13734 123.578C1.08564 121.601 0.719466 119.727 1.03883 117.954C1.3582 116.181 1.99142 114.223 2.93851 112.081C3.88008 109.939 5.01989 107.739 6.35792 105.482C7.70146 103.219 9.17714 100.812 10.785 98.263C12.3928 95.7081 14.2071 92.9853 16.228 90.0944C18.2433 87.1981 20.377 84.3899 22.629 81.6698C24.8811 78.9497 27.1277 76.4113 29.3687 74.0546C31.6098 71.6924 33.782 69.4954 35.8855 67.4635C37.9834 65.4317 40.1418 63.6449 42.3609 62.1032C44.5799 60.5559 46.5099 59.2096 48.1507 58.0643C49.7971 56.919 51.5096 55.9719 53.2881 55.223C55.0611 54.4687 56.8011 53.9208 58.5081 53.5794C60.2206 53.238 62.4286 53.6069 65.1322 54.6862C67.8413 55.7654 69.6996 56.9851 70.7073 58.3451C71.7205 59.7107 72.8961 61.6764 74.2341 64.2424C75.5721 66.8083 76.6018 68.8319 77.3231 70.3131C78.05 71.7887 78.8594 73.1598 79.7514 74.4263C80.6489 75.6927 81.5933 76.9289 82.5844 78.1348C83.581 79.3461 84.7511 80.5575 86.0947 81.7689C87.4437 82.9858 89.5554 84.5248 92.4297 86.386C95.3039 88.2471 96.8787 89.3043 97.1541 89.5576C97.4239 89.8054 97.6469 90.0889 97.8231 90.4083C97.9993 90.7332 98.1204 91.0773 98.1865 91.4407C98.2526 91.8042 98.2581 92.1676 98.203 92.531C98.1479 92.8944 98.0351 93.2385 97.8644 93.5634C97.6992 93.8938 97.4844 94.1856 97.2201 94.4389C96.9558 94.6977 96.6585 94.907 96.3281 95.0666C95.9977 95.2263 95.6481 95.3282 95.2792 95.3722C94.9157 95.4163 94.5551 95.4025 94.1972 95.3309C93.8338 95.2538 93.4924 95.1245 93.173 94.9427C92.8591 94.7555 92.5811 94.5243 92.3388 94.2489C92.0965 93.9681 91.9038 93.6598 91.7606 93.3239C91.6175 92.9825 91.5349 92.6273 91.5129 92.2584C91.4853 91.895 91.5184 91.5343 91.612 91.1764C91.7056 90.8185 91.8542 90.4881 92.058 90.1853C92.2617 89.8769 92.5067 89.6099 92.7931 89.3841C93.0849 89.1529 93.4043 88.9767 93.7512 88.8555C94.0981 88.7344 94.456 88.6711 94.8249 88.6656C95.1938 88.6601 95.5517 88.7124 95.8986 88.8225C96.251 88.9381 96.5759 89.1061 96.8732 89.3263C97.1651 89.5411 97.4184 89.7999 97.6331 90.1027C97.8423 90.4056 97.9993 90.7332 98.1039 91.0856C98.203 91.438 98.2471 91.7986 98.236 92.1676C98.2195 92.5365 98.1452 92.8916 98.013 93.233C97.8809 93.5744 97.6992 93.8883 97.4679 94.1746C97.2311 94.4609 96.9586 94.7005 96.6502 94.8932C96.3364 95.0859 96.0005 95.2236 95.6426 95.3062C95.2847 95.3943 94.9213 95.419 94.5523 95.3805C94.1889 95.3475 93.8393 95.2566 93.5034 95.1079C93.1675 94.9593 92.9996 94.8849 92.9996 94.8849C92.9996 94.8849 92.102 94.3536 90.307 93.2909C88.5174 92.2281 86.9399 91.2563 85.5743 90.3753C84.2087 89.4888 82.6422 88.3352 80.8747 86.9146C79.1017 85.4994 77.6618 84.1146 76.555 82.7601C75.4537 81.411 74.3332 79.9408 73.1934 78.3495C72.0536 76.7582 71.1148 75.2164 70.3769 73.7242C69.6391 72.2375 68.7471 70.2965 67.7009 67.9013C66.6547 65.5116 65.6635 63.5403 64.7275 61.9875C63.7914 60.4403 62.3763 59.54 60.4821 59.2867C58.5879 59.0279 56.8782 59.1132 55.353 59.5427C53.8277 59.9722 52.2309 60.6825 50.5625 61.6737C48.8941 62.6648 47.0522 63.8762 45.0369 65.3078C43.0216 66.7395 41.0063 68.4657 38.991 70.4865C36.9757 72.5128 34.9136 74.6906 32.8047 77.0197C30.6903 79.3434 28.5896 81.8405 26.5027 84.5111C24.4213 87.1816 22.4583 89.9568 20.6137 92.8366C18.7691 95.7164 17.1475 98.4448 15.7489 101.022C14.3503 103.604 13.1472 105.975 12.1395 108.133C11.1319 110.292 10.383 112.976 9.89296 116.186C9.4029 119.396 9.90673 120.726 11.4044 120.175C12.9077 119.625 14.8128 118.771 17.12 117.615C19.4326 116.459 21.8939 114.771 24.5039 112.552C27.1084 110.333 29.9965 107.778 33.1681 104.887C36.3342 101.991 39.5912 98.676 42.939 94.9427C46.2924 91.215 49.5824 87.2807 52.8091 83.14C56.0413 78.9992 59.2514 74.7346 62.4396 70.3461C65.6277 65.9631 68.4635 61.7783 70.9468 57.7917C73.4302 53.8107 75.7263 49.8489 77.8352 45.9064C79.9386 41.9639 81.8961 38.2223 83.7077 34.6818C85.5192 31.1412 87.1051 27.6613 88.4651 24.2418C89.8252 20.8169 91.0806 17.6838 92.2314 14.8426C93.3822 12.0013 94.0155 10.4844 94.1311 10.2916C94.2412 10.0989 94.3761 9.92271 94.5358 9.76302C94.69 9.60334 94.8634 9.46293 95.0562 9.34179C95.2489 9.22065 95.4526 9.12705 95.6674 9.06097C95.8766 8.98939 96.0941 8.94534 96.3199 8.92882C96.5456 8.9123 96.7686 8.92331 96.9889 8.96186C97.2091 9.0004 97.4239 9.06372 97.6331 9.15183C97.8368 9.24543 98.0296 9.35831 98.2113 9.49046C98.3875 9.62812 98.5472 9.78505 98.6903 9.96125C98.828 10.1375 98.9436 10.3274 99.0372 10.5312C99.1363 10.7349 99.2052 10.9469 99.2437 11.1671C99.2878 11.3874 99.3043 11.6076 99.2933 11.8279C99.2822 12.0481 99.2465 12.2684 99.1859 12.4886L99.0868 12.8108Z"></path><path d="M136.023 70.3131C136.023 70.3131 135.412 70.5526 134.189 71.0316C132.967 71.5052 131.502 72.3531 129.795 73.5755C128.088 74.7979 126.56 76.4746 125.211 78.6055C123.857 80.7365 122.8 82.8013 122.04 84.8001C121.28 86.8044 121.599 87.3468 122.998 86.4272C124.391 85.5132 126.456 84.5551 129.192 83.553C131.929 82.5508 134.575 81.3587 137.13 79.9766C139.679 78.6 141.725 77.218 143.267 75.8304C144.808 74.4373 145.951 72.8762 146.694 71.1473C147.438 69.4128 147.055 68.4079 145.546 68.1326C144.043 67.8572 141.989 67.5792 139.385 67.2984C136.786 67.0175 135.214 66.8111 134.668 66.6789C134.123 66.5467 133.614 66.332 133.14 66.0347C132.667 65.7373 132.251 65.3712 131.893 64.9362C131.541 64.5012 131.266 64.0221 131.067 63.499C130.869 62.9759 130.762 62.4335 130.745 61.8719C130.723 61.3158 130.795 60.7706 130.96 60.2365C131.12 59.6969 131.362 59.1986 131.687 58.7416C132.006 58.2845 132.394 57.8908 132.851 57.5605C133.303 57.2301 133.796 56.9796 134.33 56.8089C134.864 56.6437 135.412 56.5666 135.973 56.5776C136.535 56.5886 137.078 56.6877 137.601 56.8749C138.129 57.0621 138.614 57.332 139.054 57.6844C139.495 58.0313 139.866 58.4387 140.169 58.9068C140.478 59.3803 140.701 59.8869 140.838 60.4265C140.976 60.9716 141.026 61.5195 140.987 62.0701C140.943 62.6318 140.814 63.1714 140.599 63.689C140.379 64.2066 140.084 64.6746 139.715 65.0931C139.341 65.5116 138.911 65.8612 138.427 66.142C137.942 66.4229 137.424 66.6156 136.874 66.7202C136.323 66.8303 135.77 66.8496 135.214 66.778C134.657 66.7064 134.129 66.5495 133.628 66.3072C133.121 66.0594 132.67 65.7401 132.273 65.3491C131.871 64.9527 131.544 64.5039 131.29 64.0028C131.037 63.5073 130.872 62.9814 130.795 62.4253C130.712 61.8747 130.723 61.324 130.828 60.7734C130.927 60.2228 131.114 59.7024 131.389 59.2124C131.659 58.7223 132.003 58.2873 132.422 57.9074C132.835 57.5329 133.297 57.2328 133.81 57.0071C134.322 56.7813 134.858 56.6437 135.42 56.5941C135.976 56.5446 136.254 56.5198 136.254 56.5198C136.254 56.5198 136.965 56.5556 138.385 56.6271C139.811 56.6987 141.414 56.8832 143.192 57.1805C144.976 57.4724 147.107 58.1799 149.585 59.3032C152.068 60.4265 153.985 61.9435 155.334 63.8542C156.677 65.7704 157.294 67.7361 157.184 69.7514C157.068 71.7612 156.487 73.7325 155.441 75.6652C154.395 77.5979 153.142 79.2278 151.683 80.5548C150.218 81.8763 148.8 83.0491 147.429 84.0733C146.058 85.103 144.693 86.0225 143.333 86.832C141.978 87.6414 140.574 88.4536 139.12 89.2685C137.672 90.0889 136.155 90.8736 134.569 91.6224C132.984 92.3713 131.381 93.0623 129.762 93.6956C128.149 94.3288 125.765 94.7142 122.61 94.8519C119.46 94.9895 116.905 94.0617 114.945 92.0685C112.974 90.0752 112.219 87.8809 112.682 85.4857C113.144 83.0849 113.703 81.0971 114.359 79.5223C115.008 77.9475 115.754 76.4003 116.597 74.8805C117.445 73.3663 118.428 71.8383 119.545 70.2965C120.663 68.7548 122.478 67.1167 124.988 65.3822C127.499 63.6477 129.363 62.5327 130.58 62.0371C131.802 61.5415 132.604 61.2442 132.984 61.1451C133.358 61.0404 133.741 60.9854 134.132 60.9799C134.523 60.9744 134.911 61.0157 135.296 61.1038C135.676 61.1864 136.04 61.3158 136.386 61.492C136.739 61.6627 137.061 61.8747 137.353 62.1279C137.65 62.3867 137.914 62.6731 138.146 62.9869C138.371 63.3063 138.556 63.6477 138.699 64.0111C138.848 64.3745 138.947 64.7489 138.996 65.1344C139.052 65.5198 139.06 65.908 139.021 66.299C138.983 66.6899 138.895 67.0671 138.757 67.4305C138.625 67.7994 138.451 68.1463 138.237 68.4712C138.022 68.7961 137.771 69.0907 137.485 69.355C137.193 69.6193 136.877 69.845 136.535 70.0322L136.023 70.3131Z"></path><path d="M148.726 91.069C148.726 91.069 149.475 90.2073 150.973 88.4838C152.459 86.7604 153.784 85.1911 154.945 83.7759C156.107 82.3663 157.186 81.0696 158.183 79.8857C159.174 78.7019 160.372 77.496 161.776 76.2681C163.18 75.0347 164.535 73.8288 165.84 72.6505C167.145 71.4721 168.422 70.3378 169.672 69.2476C170.922 68.1573 172.288 67.1744 173.769 66.2989C175.255 65.4234 176.896 64.4351 178.691 63.3338C180.486 62.2325 182.807 61.5911 185.654 61.4093C188.501 61.2331 190.4 61.9985 191.353 63.7055C192.3 65.4179 192.837 67.2983 192.964 69.3467C193.096 71.395 193.11 73.6554 193.005 76.1277C192.906 78.6 192.832 80.6621 192.782 82.314C192.727 83.9714 193.44 84.1586 194.921 82.8757C196.408 81.5927 197.928 80.7034 199.48 80.2079C201.039 79.7123 202.649 79.1919 204.312 78.6468C205.981 78.1072 207.668 77.6061 209.375 77.1436C211.077 76.6811 212.731 76.3782 214.339 76.2351C215.947 76.0974 217.61 75.9267 219.328 75.723C221.051 75.5192 222.816 75.0347 224.622 74.2693C226.434 73.5094 227.824 72.5376 228.793 71.3537C229.762 70.1699 230.34 68.6061 230.528 66.6624C230.72 64.7131 230.076 63.4081 228.595 62.7474C227.108 62.0866 225.495 62.4803 223.755 63.9285C222.009 65.3766 220.355 67.2818 218.791 69.644C217.233 72.0007 216.25 73.9802 215.842 75.5826C215.44 77.1849 216.244 77.1766 218.254 75.5578C220.264 73.9389 222.092 72.5844 223.738 71.4941C225.385 70.4039 227.411 68.7658 229.817 66.5798C232.224 64.3883 234.511 62.3014 236.681 60.3191C238.845 58.3423 241.235 55.7571 243.85 52.5635C246.46 49.3753 248.877 46.3386 251.102 43.4533C253.327 40.5735 255.339 37.468 257.14 34.1366C258.94 30.8108 260.54 27.7824 261.938 25.0512C263.342 22.3146 264.606 19.5449 265.729 16.7422C266.858 13.9395 267.687 11.6764 268.216 9.95297C268.744 8.22399 269.231 6.61891 269.677 5.13771C270.123 3.65101 270.393 2.79478 270.487 2.56902C270.58 2.34327 270.702 2.13403 270.85 1.94131C270.993 1.74858 271.161 1.57238 271.354 1.4127C271.541 1.25852 271.745 1.12913 271.965 1.02451C272.186 0.919886 272.414 0.842798 272.651 0.793241C272.893 0.743685 273.135 0.724413 273.378 0.735425C273.62 0.746438 273.859 0.784982 274.096 0.851058C274.328 0.917133 274.551 1.01074 274.765 1.13188C274.975 1.25302 275.167 1.39893 275.343 1.56963C275.52 1.74033 275.674 1.92754 275.806 2.13127C275.938 2.34051 276.043 2.56076 276.12 2.79203C276.197 3.02329 276.246 3.26006 276.269 3.50234C276.285 3.74462 276.274 3.9869 276.235 4.22917C276.197 4.47145 276.293 5.44882 276.525 7.16128C276.756 8.87374 276.885 10.5504 276.913 12.1913C276.946 13.8322 276.643 16.0484 276.004 18.8401C275.365 21.6318 274.674 24.374 273.931 27.0666C273.188 29.7646 272.488 32.2232 271.833 34.4422C271.178 36.6613 270.476 38.8803 269.727 41.0994C268.973 43.3184 268.213 45.4796 267.447 47.583C266.677 49.6809 266.035 51.754 265.523 53.8024C265.005 55.8507 264.515 57.599 264.053 59.0471C263.59 60.4953 263.309 62.0646 263.21 63.755C263.117 65.44 263.956 66.0154 265.729 65.4813C267.502 64.9471 269.375 64.6195 271.346 64.4984C273.317 64.3717 275.327 64.6939 277.375 65.4647C279.424 66.2356 280.883 67.3754 281.753 68.8842C282.628 70.3874 283.264 72.1108 283.661 74.0546C284.063 75.9983 284.283 77.7713 284.321 79.3737C284.355 80.976 284.671 82.2204 285.271 83.1069C285.877 83.9879 286.232 84.7203 286.337 85.3039C286.447 85.8931 286.458 86.4823 286.37 87.0715C286.287 87.6606 286.111 88.2195 285.841 88.7481C285.571 89.2822 285.225 89.7585 284.801 90.177C284.377 90.59 283.897 90.9286 283.363 91.1929C282.824 91.4517 282.259 91.6197 281.67 91.6968C281.081 91.7683 280.495 91.7463 279.911 91.6307C279.327 91.515 278.777 91.3086 278.259 91.0112C277.747 90.7139 277.293 90.3422 276.896 89.8962C276.505 89.4502 276.194 88.9519 275.963 88.4012C275.732 87.8506 275.594 87.2807 275.55 86.6915C275.506 86.0968 275.558 85.5104 275.707 84.9323C275.856 84.3541 276.092 83.8172 276.417 83.3217C276.742 82.8206 277.138 82.3856 277.607 82.0167C278.069 81.6478 278.581 81.3642 279.143 81.166C279.704 80.9622 280.283 80.8549 280.877 80.8438C281.472 80.8328 282.053 80.9182 282.62 81.0999C283.187 81.2761 283.713 81.5404 284.198 81.8928C284.677 82.2452 285.087 82.6637 285.428 83.1482C285.775 83.6383 286.031 84.1669 286.196 84.734C286.367 85.3067 286.441 85.8904 286.419 86.485C286.403 87.0797 286.29 87.6551 286.081 88.2113C285.866 88.7674 285.571 89.2767 285.197 89.7393C284.823 90.2018 284.382 90.59 283.875 90.9039C283.369 91.2177 282.827 91.4462 282.248 91.5894C281.67 91.727 281.087 91.7683 280.497 91.7133C279.903 91.6637 279.333 91.5178 278.788 91.2755C278.243 91.0388 277.75 90.7194 277.309 90.3174C276.869 89.9155 276.505 89.4529 276.219 88.9298C275.927 88.4122 275.781 88.1535 275.781 88.1535C275.781 88.1535 275.514 87.4514 274.98 86.0473C274.446 84.6377 274.107 83.0684 273.964 81.3394C273.826 79.6104 273.59 77.9035 273.254 76.2185C272.923 74.5281 271.963 73.6003 270.371 73.4351C268.78 73.2644 267.125 73.0552 265.407 72.8074C263.684 72.5651 261.925 71.9209 260.13 70.8747C258.329 69.8285 257.357 68.3363 257.214 66.3981C257.071 64.4653 257.531 62.2023 258.593 59.6088C259.661 57.0098 260.476 54.6146 261.038 52.4231C261.6 50.2261 262.249 48.1061 262.987 46.0633C263.72 44.0205 264.411 41.9088 265.06 39.7283C265.705 37.5533 266.297 35.3673 266.836 33.1703C267.376 30.9678 267.918 28.545 268.463 25.902C269.003 23.2534 269.452 20.704 269.81 18.2537C270.168 15.8034 270.374 13.7523 270.429 12.1004C270.49 10.454 270.49 8.51032 270.429 6.26926C270.374 4.02819 270.393 2.79478 270.487 2.56902C270.58 2.34877 270.702 2.13953 270.85 1.94131C270.993 1.74858 271.161 1.57238 271.354 1.4127C271.541 1.25852 271.745 1.12913 271.965 1.02451C272.186 0.919886 272.414 0.842798 272.651 0.793241C272.893 0.743685 273.135 0.724413 273.378 0.735425C273.62 0.746438 273.859 0.784982 274.096 0.851058C274.328 0.917133 274.551 1.01074 274.765 1.13188C274.975 1.25302 275.167 1.39893 275.343 1.56963C275.52 1.74033 275.674 1.92754 275.806 2.13127C275.938 2.34051 276.043 2.56076 276.12 2.79203C276.197 3.02329 276.246 3.26006 276.269 3.50234C276.285 3.74462 276.274 3.9869 276.235 4.22917C276.197 4.46594 275.745 5.32493 274.881 6.80612C274.022 8.28181 273.237 9.86762 272.527 11.5636C271.817 13.265 270.903 15.5887 269.785 18.5345C268.667 21.4804 267.439 24.3575 266.101 27.1657C264.763 29.9739 263.18 33.1785 261.352 36.7797C259.524 40.3863 257.55 43.7011 255.43 46.724C253.304 49.747 250.945 53.0177 248.352 56.5363C245.753 60.0493 243.478 62.9016 241.529 65.0931C239.58 67.2791 237.411 69.7239 235.021 72.4275C232.631 75.1311 230.574 77.2647 228.851 78.8285C227.133 80.3868 225.288 81.8542 223.317 83.2308C221.351 84.6074 219.581 85.549 218.006 86.0556C216.437 86.5621 214.469 86.5291 212.101 85.9564C209.733 85.3838 208.043 84.1641 207.03 82.2975C206.022 80.4254 205.678 78.3825 205.997 76.169C206.311 73.961 207.087 71.4859 208.326 68.7437C209.565 66.0071 210.617 63.8652 211.481 62.3179C212.346 60.7651 213.307 59.2481 214.364 57.7669C215.421 56.2857 217.329 54.8238 220.088 53.3812C222.846 51.9385 225.393 51.3108 227.728 51.498C230.068 51.6907 232.359 52.4781 234.6 53.8602C236.846 55.2368 238.495 57.1667 239.547 59.6501C240.604 62.1334 241.014 64.6498 240.778 67.1992C240.535 69.7486 239.72 72.3201 238.333 74.9136C236.945 77.507 235.538 79.426 234.112 80.6704C232.686 81.9203 231.271 82.9004 229.867 83.6108C228.463 84.3266 226.637 84.9818 224.391 85.5765C222.144 86.1657 220.099 86.5539 218.254 86.7411C216.415 86.9228 214.727 87.1155 213.191 87.3192C211.66 87.523 209.918 87.9387 207.963 88.5664C206.008 89.1941 204.064 89.9347 202.132 90.7882C200.204 91.6362 198.539 92.363 197.135 92.9687C195.725 93.5689 193.933 93.9681 191.758 94.1663C189.583 94.3646 187.702 93.9543 186.117 92.9357C184.531 91.917 183.548 90.2211 183.168 87.8478C182.783 85.4746 182.661 83.3905 182.805 81.5954C182.948 79.8004 183.072 77.8594 183.176 75.7725C183.275 73.6912 183.341 71.6814 183.374 69.7431C183.407 67.8104 184.173 67.0753 185.671 67.5379C187.168 67.9949 187.116 68.5125 185.514 69.0906C183.906 69.6688 181.992 70.525 179.773 71.6593C177.549 72.7936 175.847 73.8591 174.669 74.8557C173.485 75.8524 172.23 76.9894 170.903 78.2669C169.57 79.5443 167.847 81.2155 165.732 83.2804C163.618 85.3452 162.032 87.0522 160.975 88.4012C159.918 89.7558 158.794 91.4049 157.605 93.3486C156.41 95.2924 155.692 96.3936 155.449 96.6524C155.207 96.9112 154.94 97.137 154.648 97.3297C154.351 97.5224 154.034 97.6766 153.698 97.7922C153.362 97.9079 153.018 97.9822 152.666 98.0152C152.319 98.0483 151.972 98.04 151.625 97.9905C151.273 97.9354 150.934 97.8418 150.609 97.7096C150.284 97.572 149.979 97.3985 149.692 97.1893C149.406 96.9801 149.15 96.7405 148.924 96.4707C148.699 96.2009 148.506 95.9063 148.346 95.587C148.192 95.2676 148.079 94.9372 148.007 94.5958C147.93 94.2489 147.897 93.8993 147.908 93.5469C147.919 93.189 147.972 92.8393 148.065 92.4979C148.159 92.162 148.291 91.8399 148.462 91.5316L148.726 91.069Z"></path><path d="M289.17 41.248C291.907 41.248 294.125 39.0293 294.125 36.2923C294.125 33.5554 291.907 31.3367 289.17 31.3367C286.433 31.3367 284.214 33.5554 284.214 36.2923C284.214 39.0293 286.433 41.248 289.17 41.248Z"></path><path d="M409.543 35.5821C409.543 35.5821 408.623 35.7583 406.784 36.1107C404.951 36.4631 403.147 36.8954 401.374 37.4074C399.601 37.9195 397.435 38.4591 394.874 39.0263C392.308 39.5989 389.8 40.2625 387.35 41.0168C384.905 41.7767 382.672 42.6467 380.651 43.6268C378.631 44.6014 376.535 45.6146 374.366 46.6663C372.197 47.7125 370.335 48.8248 368.783 50.0031C367.235 51.1814 365.875 52.3543 364.702 53.5216C363.535 54.689 362.365 56.2693 361.192 58.2626C360.019 60.2613 360.977 61.0515 364.066 60.633C367.155 60.22 369.702 60.0191 371.706 60.0301C373.705 60.0356 375.789 59.9585 377.959 59.7988C380.128 59.6446 382.361 59.5235 384.657 59.4354C386.953 59.3528 389.159 59.2785 391.273 59.2124C393.388 59.1518 395.207 59.0555 396.733 58.9233C398.263 58.7967 399.689 58.6452 401.011 58.469C402.327 58.2928 403.128 58.2185 403.414 58.246C403.695 58.2736 403.971 58.3341 404.24 58.4277C404.51 58.5213 404.764 58.6452 405 58.7994C405.243 58.9591 405.46 59.1436 405.653 59.3528C405.846 59.5565 406.013 59.785 406.157 60.0383C406.294 60.2861 406.402 60.5477 406.479 60.823C406.55 61.0983 406.592 61.3764 406.603 61.6572C406.608 61.9435 406.581 62.2271 406.52 62.5079C406.459 62.7832 406.366 63.0503 406.239 63.3091C406.113 63.5624 405.958 63.7991 405.777 64.0194C405.589 64.2341 405.383 64.4269 405.157 64.5976C404.926 64.7627 404.678 64.9004 404.414 65.0105C404.15 65.1206 403.877 65.195 403.596 65.2335C403.315 65.2776 401.735 66.0815 398.855 67.6453C395.981 69.2091 393.423 70.3489 391.182 71.0647C388.941 71.786 386.345 72.6946 383.394 73.7903C380.448 74.8861 377.824 76.0149 375.522 77.1767C373.226 78.3385 370.707 79.7784 367.965 81.4964C365.223 83.2144 362.712 84.7974 360.432 86.2456C358.147 87.6937 356.049 89.2713 354.139 90.9782C352.222 92.6797 350.482 94.2765 348.919 95.7687C347.355 97.2554 346.009 98.7531 344.88 100.262C343.751 101.771 342.892 103.29 342.303 104.821C341.708 106.352 342.407 107.12 344.401 107.125C346.394 107.131 348.357 107.236 350.29 107.439C352.222 107.643 355.188 107.85 359.185 108.059C363.183 108.274 366.971 108.452 370.55 108.596C374.135 108.744 378.237 108.744 382.857 108.596C387.476 108.452 391.573 108.348 395.147 108.282C398.726 108.216 402.448 107.987 406.314 107.596C410.184 107.205 413.552 106.784 416.415 106.333C419.278 105.881 423.185 105.231 428.135 104.383C433.08 103.535 435.665 103.111 435.891 103.111C436.111 103.106 436.328 103.139 436.543 103.21C436.758 103.282 436.953 103.384 437.13 103.516C437.311 103.648 437.465 103.805 437.592 103.987C437.719 104.174 437.812 104.375 437.873 104.59C437.939 104.805 437.967 105.022 437.955 105.242C437.944 105.468 437.9 105.686 437.823 105.895C437.741 106.099 437.628 106.289 437.485 106.465C437.342 106.635 437.176 106.779 436.989 106.894C436.796 107.015 436.59 107.101 436.37 107.15C436.155 107.2 435.937 107.214 435.717 107.192C435.491 107.17 435.277 107.112 435.073 107.018C434.869 106.93 434.685 106.809 434.52 106.655C434.354 106.506 434.219 106.333 434.115 106.134C434.01 105.936 433.939 105.727 433.9 105.507C433.862 105.286 433.859 105.066 433.892 104.846C433.925 104.626 433.991 104.416 434.09 104.218C434.195 104.02 434.327 103.844 434.487 103.69C434.646 103.53 434.828 103.403 435.032 103.31C435.235 103.216 435.447 103.155 435.668 103.128C435.888 103.1 436.108 103.109 436.328 103.153C436.549 103.197 436.755 103.277 436.948 103.392C437.141 103.502 437.309 103.643 437.452 103.813C437.6 103.984 437.716 104.171 437.799 104.375C437.887 104.584 437.939 104.799 437.955 105.019C437.967 105.245 437.944 105.465 437.889 105.68C437.829 105.895 437.738 106.096 437.617 106.283C437.496 106.47 437.347 106.633 437.171 106.77C436.989 106.908 436.794 107.013 436.584 107.084C436.375 107.161 436.271 107.2 436.271 107.2C436.271 107.2 433.795 107.643 428.845 108.53C423.89 109.422 419.944 110.129 417.01 110.652C414.075 111.17 410.617 111.665 406.636 112.139C402.66 112.618 398.897 112.946 395.345 113.122C391.799 113.293 387.664 113.527 382.939 113.824C378.22 114.116 374.06 114.289 370.459 114.344C366.858 114.399 362.998 114.452 358.88 114.501C354.755 114.556 351.622 114.537 349.48 114.443C347.338 114.355 345.229 114.11 343.154 113.708C341.083 113.312 339.302 111.921 337.81 109.537C336.323 107.153 336.224 104.89 337.512 102.748C338.801 100.612 340.125 98.7421 341.485 97.1398C342.84 95.543 344.321 94.0067 345.929 92.531C347.537 91.0498 349.367 89.3621 351.421 87.468C353.47 85.5683 355.614 83.8531 357.855 82.3223C360.091 80.7971 362.605 79.0846 365.396 77.185C368.188 75.2908 370.781 73.6444 373.177 72.2458C375.577 70.8472 378.223 69.4844 381.114 68.1574C384.01 66.8304 386.529 65.6603 388.671 64.6471C390.813 63.6395 392.707 62.7942 394.354 62.1115C395.995 61.4342 397.845 60.6137 399.904 59.6501C401.958 58.6865 403.128 58.2185 403.414 58.246C403.695 58.2736 403.971 58.3341 404.24 58.4277C404.51 58.5213 404.764 58.6452 405 58.7994C405.243 58.9591 405.46 59.1436 405.653 59.3528C405.846 59.5565 406.013 59.785 406.157 60.0383C406.294 60.2861 406.402 60.5477 406.479 60.823C406.55 61.0983 406.592 61.3764 406.603 61.6572C406.608 61.9435 406.581 62.2271 406.52 62.5079C406.459 62.7832 406.366 63.0503 406.239 63.3091C406.113 63.5624 405.958 63.7991 405.777 64.0194C405.595 64.2341 405.388 64.4269 405.157 64.5976C404.926 64.7627 404.678 64.9004 404.414 65.0105C404.15 65.1206 403.877 65.195 403.596 65.2335C403.315 65.2776 403.057 65.2886 402.82 65.2666C402.589 65.2445 401.179 65.1867 398.591 65.0931C395.997 64.9995 393.677 65.0133 391.628 65.1344C389.574 65.2556 387.471 65.44 385.318 65.6878C383.16 65.9411 380.91 66.288 378.57 66.7285C376.235 67.1745 373.981 67.5021 371.806 67.7114C369.631 67.9261 367.626 68.0362 365.793 68.0417C363.959 68.0528 361.682 67.8297 358.962 67.3727C356.236 66.9102 354.494 65.6107 353.734 63.4743C352.974 61.3378 353.158 59.4381 354.287 57.7752C355.416 56.1123 356.548 54.6229 357.682 53.3069C358.822 51.9909 360.099 50.7575 361.514 49.6066C362.924 48.4558 364.526 47.2527 366.321 45.9973C368.111 44.7473 370.066 43.5552 372.185 42.4209C374.3 41.2866 376.45 40.1193 378.636 38.9189C380.822 37.7185 383.176 36.631 385.698 35.6564C388.214 34.6818 390.689 33.7981 393.123 33.0051C395.562 32.2177 397.765 31.5102 399.731 30.8825C401.702 30.2548 403.602 29.7482 405.43 29.3627C407.263 28.9828 408.321 28.7818 408.601 28.7598C408.877 28.7378 409.152 28.7488 409.427 28.7928C409.703 28.8369 409.967 28.9167 410.22 29.0324C410.479 29.1425 410.719 29.2801 410.939 29.4453C411.165 29.616 411.366 29.8087 411.542 30.0235C411.712 30.2382 411.858 30.4723 411.98 30.7255C412.095 30.9788 412.181 31.2431 412.236 31.5184C412.291 31.7883 412.313 32.0608 412.302 32.3361C412.291 32.617 412.247 32.8895 412.169 33.1538C412.087 33.4236 411.977 33.6769 411.839 33.9137C411.696 34.156 411.528 34.379 411.335 34.5827C411.143 34.7809 410.928 34.9544 410.691 35.1031C410.454 35.2517 410.204 35.3701 409.939 35.4582L409.543 35.5821Z"></path><path d="M446.644 80.2574C446.644 80.2574 446.766 80.808 447.008 81.9093C447.256 83.0106 447.498 84.8524 447.735 87.4349C447.971 90.0228 448.128 92.4016 448.206 94.571C448.283 96.7405 447.399 97.8748 445.554 97.9739C443.71 98.0675 443.957 96.8837 446.298 94.4224C448.632 91.961 450.394 90.1908 451.584 89.1115C452.773 88.0378 453.973 87.0329 455.185 86.0968C456.391 85.1553 457.632 84.2605 458.91 83.4125C460.193 82.5701 461.856 81.3779 463.898 79.8362C465.947 78.2889 467.648 77.1078 469.003 76.2929C470.352 75.4724 471.907 74.6547 473.669 73.8398C475.437 73.0249 477.626 73.1157 480.236 74.1124C482.84 75.1145 484.42 76.8765 484.977 79.3984C485.533 81.9258 485.78 84.4587 485.72 86.9971C485.665 89.5355 485.596 91.8922 485.513 94.0672C485.431 96.2367 485.948 96.6359 487.066 95.2648C488.178 93.8938 490.183 92.5365 493.079 91.1929C495.975 89.8439 498.908 88.7564 501.875 87.9304C504.838 87.1045 507.299 86.5428 509.259 86.2455C511.214 85.9537 513.012 85.8325 514.653 85.8821C516.288 85.9316 517.946 86.7879 519.625 88.4508C521.299 90.1082 522.309 91.8702 522.656 93.7368C523.003 95.598 523.474 97.3269 524.069 98.9238C524.663 100.521 525.115 101.925 525.423 103.136C525.731 104.353 525.891 105.264 525.902 105.87C525.913 106.476 525.828 107.068 525.646 107.646C525.464 108.229 525.195 108.764 524.837 109.248C524.479 109.738 524.052 110.159 523.556 110.512C523.061 110.859 522.521 111.12 521.938 111.296C521.354 111.467 520.759 111.541 520.154 111.519C519.548 111.497 518.961 111.379 518.394 111.164C517.827 110.95 517.31 110.649 516.842 110.264C516.373 109.884 515.977 109.435 515.652 108.918C515.333 108.406 515.102 107.855 514.958 107.266C514.815 106.677 514.771 106.079 514.826 105.474C514.881 104.868 515.033 104.287 515.28 103.731C515.523 103.18 515.848 102.679 516.255 102.228C516.668 101.782 517.139 101.413 517.667 101.121C518.202 100.823 518.766 100.622 519.361 100.518C519.955 100.408 520.553 100.397 521.153 100.485C521.753 100.567 522.326 100.746 522.871 101.022C523.411 101.297 523.892 101.652 524.316 102.087C524.74 102.517 525.084 103.007 525.349 103.557C525.613 104.102 525.784 104.675 525.861 105.275C525.938 105.875 525.916 106.473 525.795 107.068C525.674 107.662 525.462 108.224 525.159 108.753C524.856 109.276 524.479 109.738 524.027 110.14C523.57 110.542 523.061 110.859 522.499 111.09C521.943 111.327 521.362 111.467 520.757 111.511C520.151 111.555 519.553 111.5 518.964 111.346C518.381 111.192 517.833 110.95 517.321 110.619C516.814 110.289 516.374 109.887 515.999 109.413C515.625 108.934 515.336 108.408 515.132 107.836C514.928 107.269 514.826 106.985 514.826 106.985C514.826 106.985 514.837 106.253 514.859 104.788C514.881 103.329 514.625 101.432 514.091 99.0972C513.557 96.768 512.442 95.6861 510.746 95.8512C509.056 96.0109 507.087 96.4239 504.841 97.0902C502.588 97.7619 500.188 98.8136 497.638 100.245C495.089 101.677 492.743 103.045 490.601 104.35C488.465 105.661 486.634 106.542 485.109 106.993C483.583 107.445 482.055 107.448 480.525 107.002C478.994 106.55 477.706 105.132 476.659 102.748C475.608 100.358 475.12 98.274 475.197 96.4955C475.274 94.7169 475.379 92.7292 475.511 90.5322C475.643 88.3296 476.065 86.3777 476.775 84.6762C477.485 82.9803 477.012 82.5673 475.354 83.4373C473.697 84.3128 471.745 85.6123 469.498 87.3358C467.257 89.0592 465.143 90.6478 463.155 92.1015C461.173 93.5496 459.548 94.9757 458.282 96.3799C457.01 97.784 455.537 99.3367 453.863 101.038C452.189 102.734 450.565 104.312 448.99 105.771C447.415 107.23 445.348 107.527 442.787 106.663C440.232 105.793 438.817 104.138 438.542 101.699C438.261 99.2652 438.096 97.0296 438.046 94.9923C437.997 92.9549 437.878 90.9121 437.691 88.8638C437.504 86.8154 437.287 85.2406 437.039 84.1393C436.791 83.0436 436.645 82.292 436.601 81.8845C436.562 81.4715 436.573 81.0613 436.634 80.6539C436.689 80.2464 436.794 79.8527 436.948 79.4728C437.102 79.0928 437.3 78.7349 437.543 78.399C437.785 78.0686 438.063 77.7686 438.377 77.4987C438.685 77.2344 439.024 77.0114 439.393 76.8297C439.762 76.648 440.147 76.5131 440.549 76.425C440.951 76.3369 441.356 76.2984 441.763 76.3094C442.171 76.3149 442.573 76.37 442.969 76.4746C443.371 76.5792 443.751 76.7306 444.109 76.9288C444.467 77.1271 444.797 77.3666 445.1 77.6474C445.403 77.9282 445.667 78.2393 445.893 78.5807C446.119 78.9221 446.3 79.2883 446.438 79.6792L446.644 80.2574Z"></path><path d="M521.574 31.3449C521.574 31.3449 522.061 31.2182 523.036 30.965C524.011 30.7062 525.69 30.3152 528.074 29.7921C530.459 29.2745 532.444 28.7377 534.029 28.1815C535.621 27.6199 537.306 27.1849 539.084 26.8765C540.868 26.5627 542.182 26.1855 543.024 25.745C543.872 25.299 544.563 24.9934 545.097 24.8282C545.637 24.6685 546.185 24.5969 546.741 24.6134C547.302 24.63 547.845 24.7346 548.368 24.9273C548.891 25.1255 549.37 25.4008 549.805 25.7532C550.24 26.1056 550.609 26.5159 550.912 26.9839C551.209 27.4574 551.427 27.9668 551.564 28.5119C551.696 29.057 551.738 29.6049 551.688 30.1555C551.644 30.7117 551.509 31.2458 551.283 31.7579C551.063 32.2755 550.766 32.7407 550.391 33.1537C550.011 33.5667 549.579 33.9108 549.095 34.1861C548.605 34.4615 548.084 34.6514 547.534 34.756C546.983 34.8607 546.432 34.8717 545.882 34.7891C545.326 34.712 544.797 34.5496 544.296 34.3018C543.795 34.0485 543.349 33.7236 542.958 33.3272C542.561 32.9307 542.239 32.4819 541.992 31.9809C541.744 31.4798 541.584 30.9512 541.512 30.3951C541.441 29.8444 541.457 29.2965 541.562 28.7514C541.672 28.2008 541.865 27.6832 542.14 27.1986C542.416 26.7086 542.762 26.2791 543.181 25.9102C543.599 25.5357 544.067 25.2384 544.585 25.0182C545.097 24.7979 545.631 24.6657 546.187 24.6217C546.749 24.5832 547.3 24.63 547.839 24.7621C548.384 24.8998 548.891 25.12 549.359 25.4229C549.833 25.7257 550.243 26.0974 550.59 26.5379C550.937 26.9729 551.206 27.4547 551.399 27.9833C551.592 28.5064 551.694 29.0488 551.705 29.6104C551.721 30.1665 551.644 30.7117 551.473 31.2458C551.308 31.7799 551.063 32.2727 550.738 32.7242C550.408 33.1757 550.014 33.5639 549.557 33.8888C549.106 34.2137 548.88 34.3761 548.88 34.3761C548.88 34.3761 547.66 34.8469 545.221 35.7885C542.782 36.7301 540.758 37.377 539.15 37.7294C537.537 38.0819 535.926 38.4728 534.319 38.9023C532.705 39.3318 531.081 39.709 529.445 40.0338C527.81 40.3587 526.502 40.6395 525.522 40.8763C524.542 41.1131 523.848 41.2562 523.441 41.3058C523.033 41.3609 522.631 41.3636 522.235 41.314C521.827 41.27 521.431 41.1736 521.046 41.025C520.66 40.8818 520.299 40.6946 519.964 40.4633C519.622 40.2321 519.317 39.965 519.047 39.6622C518.771 39.3593 518.537 39.0262 518.345 38.6628C518.152 38.2993 518.006 37.9194 517.907 37.523C517.808 37.1265 517.758 36.7218 517.758 36.3088C517.753 35.9014 517.8 35.4994 517.899 35.1029C517.992 34.701 518.135 34.3183 518.328 33.9549C518.515 33.5915 518.744 33.2556 519.014 32.9472C519.284 32.6389 519.586 32.3691 519.922 32.1378C520.258 31.901 520.619 31.7111 521.004 31.5679L521.574 31.3449Z"></path><path d="M583.239 86.5016C583.239 86.5016 582.702 86.5594 581.629 86.675C580.549 86.7851 579.156 87.4211 577.449 88.5829C575.737 89.7448 574.454 91.1158 573.601 92.6962C572.753 94.2765 573.477 95.6448 575.773 96.8011C578.069 97.9519 579.473 98.6072 579.985 98.7668C580.503 98.921 580.982 99.155 581.422 99.4689C581.863 99.7773 582.243 100.152 582.562 100.592C582.881 101.027 583.121 101.501 583.281 102.013C583.446 102.53 583.52 103.059 583.504 103.599C583.493 104.138 583.396 104.661 583.215 105.168C583.033 105.68 582.774 106.145 582.438 106.564C582.102 106.988 581.709 107.346 581.257 107.637C580.8 107.935 580.31 108.15 579.787 108.282C579.264 108.414 578.735 108.461 578.201 108.422C577.661 108.384 577.144 108.257 576.648 108.042C576.147 107.833 575.696 107.549 575.294 107.191C574.886 106.834 574.55 106.421 574.286 105.953C574.016 105.485 573.829 104.986 573.724 104.458C573.62 103.929 573.601 103.395 573.667 102.855C573.738 102.321 573.892 101.812 574.129 101.327C574.366 100.843 574.674 100.408 575.054 100.022C575.434 99.6368 575.866 99.323 576.351 99.0807C576.83 98.8384 577.337 98.6787 577.871 98.6017C578.405 98.5301 578.939 98.5411 579.473 98.6347C580.002 98.7338 580.503 98.9155 580.976 99.1798C581.444 99.4441 581.86 99.7745 582.223 100.171C582.587 100.573 582.876 101.022 583.091 101.517C583.311 102.013 583.443 102.528 583.487 103.062C583.537 103.601 583.498 104.133 583.371 104.656C583.245 105.184 583.036 105.677 582.744 106.134C582.457 106.591 582.105 106.988 581.687 107.324C581.268 107.665 580.806 107.932 580.299 108.125C579.792 108.312 579.269 108.414 578.73 108.43C578.19 108.452 577.92 108.463 577.92 108.463C577.92 108.463 576.918 108.406 574.914 108.29C572.909 108.18 571.092 107.938 569.463 107.563C567.833 107.189 566.09 105.787 564.234 103.359C562.368 100.936 561.487 98.665 561.591 96.5451C561.696 94.4251 562.117 92.4429 562.855 90.5983C563.593 88.7536 564.653 86.9338 566.035 85.1388C567.411 83.3437 569.138 81.7606 571.214 80.3896C573.295 79.013 575.065 78.0411 576.524 77.474C577.989 76.9068 579.283 76.5572 580.406 76.425C581.53 76.2929 582.298 76.2268 582.711 76.2268C583.129 76.2323 583.539 76.2874 583.941 76.392C584.343 76.4966 584.729 76.6453 585.098 76.838C585.461 77.0362 585.797 77.2758 586.105 77.5566C586.414 77.8319 586.686 78.143 586.923 78.4899C587.154 78.8368 587.341 79.203 587.485 79.5884C587.628 79.9794 587.724 80.3786 587.774 80.786C587.818 81.199 587.812 81.612 587.757 82.0249C587.702 82.4379 587.6 82.8399 587.452 83.2308C587.303 83.6163 587.107 83.9797 586.865 84.3211C586.628 84.657 586.353 84.9626 586.039 85.2379C585.725 85.5132 585.381 85.7444 585.007 85.9317C584.638 86.1189 584.252 86.262 583.85 86.3612L583.239 86.5016Z"></path><path d="M13.4858 16.7835C13.4858 16.7835 14.4632 16.9762 16.4179 17.3617C18.3671 17.7471 20.6963 18.1518 23.4054 18.5758C26.12 18.9943 29.3742 19.3302 33.1681 19.5834C36.9674 19.8367 41.1467 20.0405 45.7059 20.1946C50.2706 20.3543 55.2814 20.481 60.7381 20.5746C66.1949 20.6737 71.7149 20.7535 77.2983 20.8141C82.8817 20.8747 90.0784 20.9352 98.8885 20.9958C107.699 21.0564 112.214 21.1059 112.434 21.1445C112.654 21.183 112.864 21.2546 113.062 21.3592C113.26 21.4638 113.436 21.5987 113.59 21.7639C113.745 21.9291 113.868 22.1136 113.962 22.3173C114.056 22.5211 114.113 22.7358 114.135 22.9616C114.163 23.1818 114.152 23.4021 114.102 23.6223C114.053 23.8426 113.968 24.0491 113.846 24.2418C113.731 24.4345 113.588 24.6024 113.417 24.7456C113.246 24.8888 113.056 25.0016 112.847 25.0842C112.638 25.1668 112.42 25.2136 112.195 25.2246C111.969 25.2357 111.748 25.2109 111.534 25.1503C111.313 25.0897 111.113 24.9961 110.931 24.8695C110.744 24.7428 110.584 24.5887 110.452 24.407C110.314 24.2308 110.209 24.0353 110.138 23.8205C110.066 23.6058 110.031 23.3855 110.031 23.1598C110.036 22.9395 110.075 22.722 110.146 22.5073C110.218 22.2925 110.322 22.0971 110.46 21.9209C110.598 21.7392 110.76 21.5877 110.947 21.4666C111.135 21.34 111.336 21.2463 111.55 21.1858C111.765 21.1252 111.985 21.1032 112.211 21.1197C112.437 21.1307 112.654 21.1775 112.864 21.2601C113.073 21.3482 113.263 21.4638 113.433 21.607C113.604 21.7557 113.747 21.9264 113.863 22.1191C113.973 22.3118 114.053 22.5183 114.102 22.7386C114.152 22.9588 114.163 23.1818 114.135 23.4076C114.108 23.6278 114.047 23.8398 113.954 24.0435C113.86 24.2473 113.736 24.4317 113.582 24.5969C113.422 24.7566 113.243 24.8888 113.045 24.9934C112.847 25.098 112.638 25.1696 112.418 25.2081C112.192 25.2412 112.079 25.2577 112.079 25.2577C112.079 25.2577 107.674 25.2494 98.8637 25.2329C90.0537 25.2219 82.8542 25.2164 77.2653 25.2164C71.6709 25.2164 66.1371 25.2081 60.6638 25.1916C55.185 25.1806 50.144 25.1558 45.5407 25.1173C40.932 25.0732 36.6618 24.9989 32.7303 24.8943C28.7933 24.7841 25.3877 24.6134 22.5134 24.3822C19.6336 24.1564 17.2163 23.8673 15.2616 23.5149C13.3069 23.168 12.2083 22.9561 11.9661 22.879C11.7238 22.8019 11.4925 22.6973 11.2723 22.5651C11.0575 22.433 10.8593 22.276 10.6776 22.0943C10.5014 21.9181 10.3472 21.7199 10.2151 21.4996C10.0829 21.2794 9.98105 21.0481 9.90946 20.8058C9.83238 20.5636 9.78833 20.3158 9.77731 20.0625C9.76079 19.8147 9.77731 19.5642 9.82687 19.3109C9.87092 19.0631 9.94525 18.8236 10.0499 18.5923C10.1545 18.361 10.2866 18.1435 10.4463 17.9398C10.606 17.7416 10.785 17.5654 10.9832 17.4112C11.1869 17.257 11.4044 17.1276 11.6357 17.023C11.867 16.9184 12.1092 16.8441 12.3625 16.8C12.6103 16.756 12.8581 16.7422 13.1059 16.7587L13.4858 16.7835Z"></path></svg>