<svg width="960" height="240" viewBox="0 0 960 240" fill="none" xmlns="http://www.w3.org/2000/svg">
<rect width="960" height="240" fill="white"/>
<g clip-path="url(#clip0_1018_24)">
<path d="M46 44H147V94.6667H96.5L46 44ZM46 94.6667H96.5L147 145.333H96.5V196L46 145.333V94.6667Z" fill="#1E293B"/>
</g>
<path d="M214.321 157.882V85.1548H262.474V97.8324H229.697V115.162H259.278V127.839H229.697V157.882H214.321Z" fill="#1E293B"/>
<path d="M271.654 157.882V103.337H286.32V112.854H286.888C287.883 109.468 289.552 106.911 291.896 105.183C294.239 103.431 296.938 102.555 299.992 102.555C300.75 102.555 301.567 102.603 302.442 102.697C303.318 102.792 304.088 102.922 304.751 103.088V116.511C304.04 116.298 303.058 116.109 301.803 115.943C300.549 115.777 299.4 115.695 298.359 115.695C296.133 115.695 294.145 116.18 292.393 117.151C290.665 118.098 289.291 119.423 288.273 121.128C287.279 122.832 286.782 124.797 286.782 127.023V157.882H271.654Z" fill="#1E293B"/>
<path d="M326.564 158.912C323.083 158.912 319.982 158.308 317.26 157.101C314.537 155.87 312.383 154.059 310.797 151.668C309.234 149.253 308.453 146.246 308.453 142.648C308.453 139.617 309.009 137.072 310.122 135.013C311.234 132.953 312.75 131.296 314.667 130.041C316.585 128.786 318.763 127.839 321.201 127.2C323.663 126.561 326.244 126.111 328.943 125.851C332.115 125.519 334.672 125.212 336.613 124.928C338.555 124.62 339.963 124.17 340.839 123.578C341.715 122.986 342.153 122.11 342.153 120.95V120.737C342.153 118.488 341.443 116.748 340.022 115.517C338.626 114.286 336.637 113.67 334.056 113.67C331.334 113.67 329.168 114.274 327.558 115.482C325.948 116.665 324.883 118.157 324.362 119.956L310.37 118.82C311.081 115.505 312.477 112.641 314.561 110.226C316.644 107.787 319.331 105.917 322.622 104.615C325.936 103.289 329.771 102.626 334.127 102.626C337.158 102.626 340.058 102.982 342.828 103.692C345.621 104.402 348.095 105.503 350.25 106.994C352.428 108.486 354.144 110.403 355.399 112.747C356.654 115.067 357.281 117.849 357.281 121.092V157.882H342.934V150.318H342.508C341.632 152.023 340.46 153.526 338.993 154.828C337.525 156.107 335.761 157.113 333.701 157.847C331.642 158.557 329.262 158.912 326.564 158.912ZM330.896 148.472C333.121 148.472 335.086 148.034 336.791 147.158C338.495 146.258 339.833 145.051 340.804 143.536C341.774 142.02 342.26 140.304 342.26 138.386V132.598C341.786 132.906 341.135 133.19 340.306 133.45C339.502 133.687 338.59 133.912 337.572 134.125C336.554 134.314 335.536 134.492 334.518 134.658C333.5 134.8 332.577 134.93 331.748 135.048C329.973 135.309 328.422 135.723 327.096 136.291C325.77 136.859 324.741 137.629 324.007 138.599C323.273 139.546 322.906 140.73 322.906 142.151C322.906 144.21 323.652 145.785 325.143 146.874C326.658 147.939 328.576 148.472 330.896 148.472Z" fill="#1E293B"/>
<path d="M369.017 157.882V103.337H383.435V112.96H384.074C385.211 109.764 387.105 107.243 389.756 105.396C392.408 103.55 395.58 102.626 399.273 102.626C403.014 102.626 406.198 103.562 408.826 105.432C411.453 107.278 413.205 109.788 414.081 112.96H414.649C415.762 109.835 417.774 107.338 420.686 105.467C423.622 103.573 427.09 102.626 431.091 102.626C436.181 102.626 440.312 104.248 443.485 107.491C446.681 110.711 448.279 115.28 448.279 121.199V157.882H433.186V124.182C433.186 121.152 432.382 118.879 430.772 117.364C429.162 115.848 427.149 115.091 424.735 115.091C421.988 115.091 419.846 115.967 418.307 117.719C416.768 119.447 415.999 121.732 415.999 124.572V157.882H401.333V123.862C401.333 121.187 400.563 119.056 399.024 117.47C397.509 115.884 395.509 115.091 393.023 115.091C391.342 115.091 389.827 115.517 388.478 116.369C387.152 117.198 386.098 118.37 385.317 119.885C384.536 121.376 384.145 123.128 384.145 125.141V157.882H369.017Z" fill="#1E293B"/>
<path d="M485.086 158.947C479.476 158.947 474.646 157.811 470.598 155.538C466.573 153.242 463.472 149.999 461.294 145.808C459.116 141.594 458.027 136.611 458.027 130.858C458.027 125.247 459.116 120.323 461.294 116.085C463.472 111.848 466.538 108.545 470.491 106.178C474.468 103.81 479.132 102.626 484.483 102.626C488.081 102.626 491.431 103.206 494.532 104.366C497.657 105.503 500.38 107.219 502.7 109.516C505.044 111.812 506.867 114.7 508.169 118.18C509.471 121.637 510.122 125.685 510.122 130.325V134.48H464.064V125.105H495.882C495.882 122.927 495.408 120.998 494.461 119.317C493.514 117.636 492.2 116.322 490.52 115.375C488.862 114.404 486.933 113.919 484.731 113.919C482.435 113.919 480.399 114.452 478.623 115.517C476.871 116.559 475.498 117.967 474.504 119.743C473.51 121.495 473.001 123.448 472.977 125.602V134.516C472.977 137.214 473.474 139.546 474.468 141.511C475.486 143.476 476.919 144.991 478.765 146.057C480.612 147.122 482.802 147.655 485.335 147.655C487.016 147.655 488.555 147.418 489.951 146.945C491.348 146.471 492.544 145.761 493.538 144.814C494.532 143.867 495.29 142.707 495.811 141.334L509.802 142.257C509.092 145.619 507.636 148.554 505.434 151.064C503.256 153.55 500.439 155.491 496.983 156.888C493.55 158.261 489.584 158.947 485.086 158.947Z" fill="#1E293B"/>
<path d="M519.994 157.882V103.337H534.66V112.854H535.228C536.223 109.468 537.892 106.911 540.235 105.183C542.579 103.431 545.278 102.555 548.332 102.555C549.09 102.555 549.906 102.603 550.782 102.697C551.658 102.792 552.428 102.922 553.091 103.088V116.511C552.38 116.298 551.398 116.109 550.143 115.943C548.888 115.777 547.74 115.695 546.699 115.695C544.473 115.695 542.484 116.18 540.733 117.151C539.004 118.098 537.631 119.423 536.613 121.128C535.619 122.832 535.122 124.797 535.122 127.023V157.882H519.994Z" fill="#1E293B"/>
<path d="M584.341 85.1548H603.304L623.332 134.018H624.184L644.213 85.1548H663.176V157.882H648.261V110.545H647.657L628.836 157.527H618.68L599.859 110.368H599.255V157.882H584.341V85.1548Z" fill="#1E293B"/>
<path d="M700.205 158.947C694.689 158.947 689.919 157.776 685.894 155.432C681.893 153.064 678.804 149.774 676.626 145.56C674.448 141.322 673.359 136.41 673.359 130.822C673.359 125.188 674.448 120.264 676.626 116.05C678.804 111.812 681.893 108.521 685.894 106.178C689.919 103.81 694.689 102.626 700.205 102.626C705.721 102.626 710.48 103.81 714.481 106.178C718.505 108.521 721.607 111.812 723.785 116.05C725.963 120.264 727.052 125.188 727.052 130.822C727.052 136.41 725.963 141.322 723.785 145.56C721.607 149.774 718.505 153.064 714.481 155.432C710.48 157.776 705.721 158.947 700.205 158.947ZM700.276 147.229C702.786 147.229 704.881 146.518 706.562 145.098C708.243 143.654 709.509 141.689 710.362 139.203C711.237 136.717 711.675 133.888 711.675 130.716C711.675 127.544 711.237 124.714 710.362 122.229C709.509 119.743 708.243 117.778 706.562 116.334C704.881 114.89 702.786 114.168 700.276 114.168C697.743 114.168 695.612 114.89 693.884 116.334C692.18 117.778 690.889 119.743 690.013 122.229C689.161 124.714 688.735 127.544 688.735 130.716C688.735 133.888 689.161 136.717 690.013 139.203C690.889 141.689 692.18 143.654 693.884 145.098C695.612 146.518 697.743 147.229 700.276 147.229Z" fill="#1E293B"/>
<path d="M765.901 103.337V114.7H733.053V103.337H765.901ZM740.511 90.2685H755.638V141.121C755.638 142.518 755.852 143.607 756.278 144.388C756.704 145.145 757.296 145.678 758.053 145.986C758.835 146.294 759.734 146.447 760.752 146.447C761.462 146.447 762.173 146.388 762.883 146.27C763.593 146.128 764.138 146.021 764.516 145.95L766.896 157.207C766.138 157.444 765.073 157.716 763.7 158.024C762.326 158.356 760.657 158.557 758.692 158.628C755.047 158.77 751.851 158.285 749.104 157.172C746.382 156.059 744.263 154.331 742.748 151.987C741.233 149.643 740.487 146.684 740.511 143.109V90.2685Z" fill="#1E293B"/>
<path d="M775.756 157.882V103.337H790.884V157.882H775.756ZM783.355 96.3054C781.106 96.3054 779.177 95.5597 777.567 94.0682C775.981 92.553 775.187 90.742 775.187 88.6349C775.187 86.5516 775.981 84.7642 777.567 83.2727C779.177 81.7576 781.106 81 783.355 81C785.604 81 787.522 81.7576 789.108 83.2727C790.718 84.7642 791.523 86.5516 791.523 88.6349C791.523 90.742 790.718 92.553 789.108 94.0682C787.522 95.5597 785.604 96.3054 783.355 96.3054Z" fill="#1E293B"/>
<path d="M827.647 158.947C822.131 158.947 817.36 157.776 813.336 155.432C809.335 153.064 806.245 149.774 804.067 145.56C801.889 141.322 800.8 136.41 800.8 130.822C800.8 125.188 801.889 120.264 804.067 116.05C806.245 111.812 809.335 108.521 813.336 106.178C817.36 103.81 822.131 102.626 827.647 102.626C833.163 102.626 837.921 103.81 841.922 106.178C845.947 108.521 849.048 111.812 851.226 116.05C853.404 120.264 854.493 125.188 854.493 130.822C854.493 136.41 853.404 141.322 851.226 145.56C849.048 149.774 845.947 153.064 841.922 155.432C837.921 157.776 833.163 158.947 827.647 158.947ZM827.718 147.229C830.227 147.229 832.322 146.518 834.003 145.098C835.684 143.654 836.951 141.689 837.803 139.203C838.679 136.717 839.117 133.888 839.117 130.716C839.117 127.544 838.679 124.714 837.803 122.229C836.951 119.743 835.684 117.778 834.003 116.334C832.322 114.89 830.227 114.168 827.718 114.168C825.185 114.168 823.054 114.89 821.326 116.334C819.621 117.778 818.331 119.743 817.455 122.229C816.603 124.714 816.176 127.544 816.176 130.716C816.176 133.888 816.603 136.717 817.455 139.203C818.331 141.689 819.621 143.654 821.326 145.098C823.054 146.518 825.185 147.229 827.718 147.229Z" fill="#1E293B"/>
<path d="M879.458 126.348V157.882H864.33V103.337H878.747V112.96H879.387C880.594 109.788 882.618 107.278 885.459 105.432C888.3 103.562 891.745 102.626 895.793 102.626C899.581 102.626 902.883 103.455 905.701 105.112C908.518 106.769 910.708 109.137 912.27 112.214C913.833 115.268 914.614 118.914 914.614 123.152V157.882H899.486V125.851C899.51 122.513 898.658 119.909 896.929 118.038C895.201 116.144 892.822 115.197 889.792 115.197C887.756 115.197 885.956 115.635 884.394 116.511C882.855 117.387 881.648 118.666 880.772 120.347C879.919 122.004 879.481 124.004 879.458 126.348Z" fill="#1E293B"/>
<defs>
<clipPath id="clip0_1018_24">
<rect width="101" height="152" fill="white" transform="translate(46 44)"/>
</clipPath>
</defs>
</svg>
